<svg id="svg2" xmlns="http://www.w3.org/2000/svg" xmlns:xlink="http://www.w3.org/1999/xlink" width="158.5691mm" height="39.95mm" viewBox="0 0 449.4872 113.244"><defs><clipPath id="clip-path" transform="translate(0.0003 0.0002)"><rect y="-0.0001" width="449.4866" height="113.244" style="fill:none"/></clipPath></defs><title>logo-blanco</title><g id="g10"><g id="g12"><g style="clip-path:url(#clip-path)"><g id="g14"><g id="g20"><path id="path22" d="M212.8044,56.4a3.1042,3.1042,0,1,1-3.2187-2.9866A3.1031,3.1031,0,0,1,212.8044,56.4" transform="translate(0.0003 0.0002)" style="fill:#fff"/></g><g id="g24"><path id="path26" d="M242.406,51.599c-4.0467.0106-5.8413,2.1133-5.832,5.8986l.0147,5.396c.0093,3.972,2.036,6.0294,6.3093,6.0174a14.895,14.895,0,0,0,5.0573-.8734c.8227-.3773.8987-.4893.896-1.276l-.0333-13.7533a15.0423,15.0423,0,0,0-6.412-1.4093M242.1767,50.1a17.8664,17.8664,0,0,1,6.6373,1.3333l-.0227-8.8813c0-.3373.112-.4507.4494-.452l.712-.0013c.336,0,.4506.112.4506.4493l.06,24.6587c.004,1.236-.2946,1.5746-1.492,2.064a16.1556,16.1556,0,0,1-6.1826,1.1026c-5.32.0134-7.7627-2.604-7.776-7.4386l-.0134-5.472c-.0093-4.6094,2.2307-7.3494,7.1774-7.3627" transform="translate(0.0003 0.0002)" style="fill:#fff"/></g><g id="g28"><path id="path30" d="M268.4868,51.01l.0453,18.3254c.0013.3373-.1107.4506-.4493.4506l-.748.0027c-.3,0-.4134-.112-.4134-.4493l-.0453-18.3254c-.0013-.3.112-.4133.412-.4133l.748-.0027c.3387,0,.4507.112.4507.412m.2106-6.184v.224c.0014.712-.2226.976-.9346.9774l-.188.0013c-.7494.0013-.9734-.2227-.976-.9733v-.224c-.0027-.712.2213-.9374.972-.94h.1866c.712-.0014.9374.2226.94.9346" transform="translate(0.0003 0.0002)" style="fill:#fff"/></g><g id="g32"><path id="path34" d="M291.4191,49.9792c4.3093-.0106,6.4506,1.596,7.5066,4.104a.4115.4115,0,0,1-.224.6387l-.5613.2253c-.336.1507-.4507.076-.6387-.1853-.828-2.0227-2.368-3.3293-6.0413-3.32-3.7093.0093-5.6173,1.3613-5.612,3.9107.0093,3.56,2.784,3.7773,6.308,4.1066,3.8986.3654,7.1226,1.1067,7.132,5.304.008,3.3734-2.3467,5.4774-7.444,5.4894-3.972.0106-6.6734-1.332-7.9933-4.7014a.3989.3989,0,0,1,.2613-.6l.6347-.1893c.3013-.1133.4146-.076.5639.26,1.02,2.7707,3.2334,3.816,6.4934,3.808,4.0853-.0107,5.9173-1.4773,5.912-3.988-.008-3.148-2.5214-3.628-5.8934-3.9573-3.8626-.3654-7.536-.732-7.5466-5.4907-.008-3.3733,2.3853-5.4027,7.1427-5.4147" transform="translate(0.0003 0.0002)" style="fill:#fff"/></g><g id="g36"><path id="path38" d="M318.2432,46.3906l.0107,4.084,5.96-.0134c.3346-.0013.448.1107.4493.4107v.6373c.0027.3-.1107.412-.448.4134l-5.9573.0146.0253,10.868c.012,4.8347,1.4013,5.8427,5.8987,5.832.3373-.0013.4506.112.4506.448l.0014.6374c.0013.3373-.1107.4493-.448.4506-5.5467.0507-7.4987-1.5173-7.5147-7.3266l-.0253-10.9054-4.0467.0094c-.3.0013-.4133-.1107-.4147-.4107l-.0013-.6373c-.0013-.3.112-.412.412-.4134l4.048-.0093-.0107-4.0853c-.0013-.3.112-.412.448-.4134l.7134-.0013c.336-.0013.448.1107.4493.4107" transform="translate(0.0003 0.0002)" style="fill:#fff"/></g><g id="g40"><path id="path42" d="M347.971,49.84c.3,0,.412.1107.4134.448l.0013.6014c.0013.3373-.1107.4493-.412.4506l-1.1973.0014a15.7077,15.7077,0,0,0-5.6574.9893,1.1222,1.1222,0,0,0-.7853,1.2387l.0387,15.5893c.0026.3373-.1094.4507-.4107.4507l-.748.0026c-.3,0-.4507-.112-.452-.4493l-.04-16.04c-.0027-1.1613.296-1.5733,1.42-2.064a17.7073,17.7073,0,0,1,6.668-1.216Z" transform="translate(0.0003 0.0002)" style="fill:#fff"/></g><g id="g44"><path id="path46" d="M380.8226,44.4752l.0094,3.3734c.004,1.1986-.408,1.612-1.608,1.6146l-9.8934.0254.0094,3.3346,7.9066-.0186c1.1987-.004,1.612.408,1.6147,1.5693l.008,3.3733c.0027,1.1987-.408,1.612-1.6067,1.6147l-7.9066.02.008,3.5973,10.2306-.0253c1.1614-.0027,1.576.3707,1.5787,1.5707l.0093,3.4106c.0014,1.1614-.4093,1.5734-1.5706,1.5774l-16.04.04c-1.2.0026-1.6134-.4094-1.616-1.5707l-.0574-23.46c-.0026-1.1613.408-1.5747,1.6067-1.5773l15.7027-.0387c1.1986-.004,1.612.408,1.6146,1.5693" transform="translate(0.0003 0.0002)" style="fill:#fff"/></g><g id="g48"><path id="path50" d="M406.2445,49.66H405.87a19.8919,19.8919,0,0,1-.6987,5.212l-1.376,4.4253,4.684-.012-1.3973-4.3813a23.5538,23.5538,0,0,1-.8374-5.244m11.6667,19.7587-4.0467.0106c-1.9506.004-2.5133-.4066-2.8146-1.568l-.8694-2.696-8.0946.02-.856,2.7c-.3707,1.164-.8574,1.576-2.732,1.5814l-3.9347.0093c-1.1613.0027-1.388-.5213-1.0147-1.5347l8.56-23.78c.3734-1.088.8587-1.3133,1.9454-1.316l4.2733-.0106c1.0867-.004,1.5733.2586,1.9507,1.232L418.9952,67.88c.376,1.0107.04,1.536-1.084,1.5387" transform="translate(0.0003 0.0002)" style="fill:#fff"/></g><g id="g52"><path id="path54" d="M449.4789,44.3072l.008,3.372c.004,1.2-.408,1.612-1.6067,1.616l-5.5466.0134.0466,18.4746c.0027,1.1627-.4093,1.576-1.6093,1.5787l-4.2347.0107c-1.1973.0026-1.576-.408-1.5786-1.5707l-.044-18.4747-5.584.0134c-1.2.0026-1.5747-.408-1.5774-1.608l-.0093-3.372c-.0027-1.1627.372-1.576,1.5693-1.5787l18.552-.0453c1.1987-.0027,1.612.408,1.6147,1.5706" transform="translate(0.0003 0.0002)" style="fill:#fff"/></g><g id="g56"><path id="path58" d="M183.8721,0V84.5574A27.9077,27.9077,0,0,1,143.16,109.368a46.02,46.02,0,0,0,9.3974-12.6453,12.4325,12.4325,0,0,0,3.3946.4667,12.6441,12.6441,0,0,0,12.6294-12.632V54.0534a12.6255,12.6255,0,0,0-22.2787-8.1427,46.2474,46.2474,0,0,0-11.736-9.7867,27.871,27.871,0,0,1,34.0147-6.964V0Z" transform="translate(0.0003 0.0002)" style="fill:#fff"/></g><g id="g60"><path id="path62" d="M148.1833,75.9876A36.6318,36.6318,0,0,1,145.026,90.897,36.8379,36.8379,0,0,1,74.9793,81.89a45.1112,45.1112,0,0,0,5.8014-1.712q1.6179-.598,3.1813-1.308a45.84,45.84,0,0,0,5.8413-3.196c-.008.1067-.008.2067-.008.3133a21.5362,21.5362,0,1,0,21.544-21.552,21.05,21.05,0,0,0-3.952.3667,45.3027,45.3027,0,0,0,2.1494-6.292c.2826-1.108.5346-2.2253.74-3.364a45.51,45.51,0,0,0,.6813-5.9933c.1307-.008.2533-.008.3813-.008A36.66,36.66,0,0,1,129.85,44.137a37.1463,37.1463,0,0,1,13.472,13.5786,36.5651,36.5651,0,0,1,4.8613,18.272" transform="translate(0.0003 0.0002)" style="fill:#fff"/></g><g id="g64"><path id="path66" d="M101.7147,36.8659c0,.62-.016,1.2387-.0454,1.8507-.032.588-.0773,1.1693-.1306,1.7506v.008a36.9154,36.9154,0,0,1-1.2987,6.72,35.3107,35.3107,0,0,1-1.584,4.3574A36.9632,36.9632,0,0,1,85.1093,67.6312a36.8871,36.8871,0,0,1-10.428,4.74c-.5586.1614-1.124.3054-1.6986.428a36.1434,36.1434,0,0,1-7.7214.8947c-.1293.008-.26.008-.3906.008-.4427,0-.8867-.008-1.3294-.0307V58.3659c.4427.0293.8867.0453,1.3294.0453a21.0746,21.0746,0,0,0,3.9613-.368v-.0066a21.5566,21.5566,0,0,0,17.584-20.872c.008-.1.008-.1987.008-.2987a21.544,21.544,0,0,0-38.8467-12.844,35.3681,35.3681,0,0,0-5.2826-2.8973h-.008c-1.032-.4587-2.0867-.864-3.172-1.224a35.159,35.159,0,0,0-6.148-1.4374,36.8309,36.8309,0,0,1,68.748,18.4027" transform="translate(0.0003 0.0002)" style="fill:#fff"/></g><g id="g68"><path id="path70" d="M55.8877,53.6784v59.5654H40.6051V53.5864a3.9722,3.9722,0,0,0-.016-.436c-.0067-.1746-.0147-.344-.0307-.512a12.51,12.51,0,0,0-2.6373-6.8266l-.0147-.016a2.391,2.391,0,0,0-.5813-.688.0278.0278,0,0,1-.008-.0147,12.7218,12.7218,0,0,0-9.052-4.1373c-.1-.0067-.1987-.0067-.2974-.0067a11.6771,11.6771,0,0,0-1.3693.076,12.6353,12.6353,0,0,0-11.2453,12.004c-.008.1827-.016.3733-.016.5573v30.972h-.0454v28.6854H0V0h15.292V28.8a27.7674,27.7674,0,0,1,12.676-3.0427h.0374c.58,0,1.1466.024,1.72.0613h.008a27.3579,27.3579,0,0,1,5.956,1.0254A27.4948,27.4948,0,0,1,44.16,30.9491c.4814.3427.956.7027,1.4227,1.0853a27.8733,27.8733,0,0,1,10.3053,21.644" transform="translate(0.0003 0.0002)" style="fill:#fff"/></g></g></g></g></g></svg>