<svg xmlns="http://www.w3.org/2000/svg" width="310" height="77" fill="none" viewBox="0 0 310 77">
    <path fill="#041555" d="M91.307 43.507c0 1.073-.072 2.038-.215 2.895h-21.71c.178 2.145.928 3.824 2.25 5.04 1.323 1.214 2.95 1.822 4.88 1.822 2.787 0 4.77-1.197 5.95-3.592h8.094c-.857 2.86-2.501 5.218-4.932 7.077-2.43 1.822-5.414 2.733-8.952 2.733-2.86 0-5.432-.625-7.72-1.876-2.251-1.286-4.02-3.091-5.307-5.414-1.25-2.323-1.876-5.004-1.876-8.041 0-3.074.626-5.772 1.876-8.095 1.251-2.323 3.002-4.11 5.254-5.36 2.251-1.252 4.842-1.877 7.773-1.877 2.823 0 5.343.608 7.559 1.823 2.251 1.215 3.985 2.948 5.2 5.2 1.25 2.215 1.876 4.77 1.876 7.665zm-7.773-2.144c-.036-1.93-.733-3.466-2.091-4.61-1.358-1.18-3.02-1.77-4.986-1.77-1.858 0-3.43.573-4.717 1.716-1.25 1.108-2.02 2.663-2.305 4.664h14.099zm11.321 2.68c0-3.002.59-5.664 1.769-7.987 1.215-2.323 2.841-4.11 4.878-5.36 2.073-1.252 4.378-1.877 6.916-1.877 2.215 0 4.145.447 5.789 1.34 1.68.894 3.02 2.02 4.021 3.377v-4.235h7.559V59h-7.559v-4.342c-.965 1.394-2.305 2.555-4.021 3.484-1.679.894-3.627 1.34-5.843 1.34-2.502 0-4.789-.643-6.862-1.93-2.037-1.286-3.663-3.09-4.878-5.414-1.18-2.358-1.769-5.057-1.769-8.094zm23.373.108c0-1.823-.357-3.378-1.072-4.664-.715-1.323-1.68-2.323-2.895-3.002-1.215-.715-2.52-1.072-3.913-1.072-1.394 0-2.681.34-3.86 1.018-1.18.68-2.144 1.68-2.895 3.002-.715 1.287-1.072 2.824-1.072 4.61 0 1.787.357 3.36 1.072 4.718.751 1.322 1.715 2.34 2.895 3.056 1.215.714 2.502 1.072 3.86 1.072 1.393 0 2.698-.34 3.913-1.019 1.215-.715 2.18-1.715 2.895-3.002.715-1.322 1.072-2.895 1.072-4.717zm23.627-8.685v14.367c0 1 .232 1.733.697 2.198.5.429 1.322.643 2.465.643h3.485V59h-4.718c-6.325 0-9.488-3.074-9.488-9.22V35.465h-3.538v-6.165h3.538v-7.344h7.559v7.344h6.647v6.165h-6.647z"/>
    <path fill="#224BDD" d="M165.265 59.483c-2.43 0-4.61-.43-6.54-1.287-1.93-.894-3.467-2.09-4.611-3.592-1.107-1.5-1.715-3.163-1.822-4.985h7.558c.143 1.143.697 2.09 1.662 2.84 1.001.751 2.234 1.127 3.699 1.127 1.43 0 2.538-.286 3.324-.858.822-.572 1.233-1.305 1.233-2.198 0-.965-.5-1.68-1.501-2.144-.965-.5-2.52-1.037-4.664-1.608-2.216-.537-4.038-1.09-5.468-1.662-1.394-.572-2.609-1.448-3.645-2.627-1.001-1.18-1.501-2.77-1.501-4.771 0-1.644.464-3.145 1.393-4.503.965-1.358 2.323-2.43 4.075-3.217 1.787-.786 3.877-1.18 6.272-1.18 3.538 0 6.361.894 8.47 2.681 2.108 1.752 3.27 4.128 3.484 7.13H169.5c-.107-1.18-.608-2.108-1.501-2.787-.858-.715-2.019-1.073-3.485-1.073-1.358 0-2.412.25-3.163.75-.714.501-1.072 1.198-1.072 2.092 0 1 .501 1.769 1.501 2.305 1.001.5 2.556 1.018 4.664 1.554 2.144.536 3.914 1.09 5.307 1.662 1.394.572 2.591 1.465 3.592 2.68 1.036 1.18 1.573 2.752 1.608 4.718 0 1.715-.482 3.252-1.447 4.61-.929 1.358-2.287 2.43-4.074 3.217-1.752.75-3.806 1.126-6.165 1.126zm15.917-15.44c0-3.002.59-5.664 1.769-7.987 1.215-2.323 2.841-4.11 4.878-5.36 2.073-1.252 4.378-1.877 6.916-1.877 2.216 0 4.145.447 5.789 1.34 1.68.894 3.02 2.02 4.021 3.377v-4.235h7.559V59h-7.559v-4.342c-.965 1.394-2.305 2.555-4.021 3.484-1.679.894-3.627 1.34-5.843 1.34-2.502 0-4.789-.643-6.862-1.93-2.037-1.286-3.663-3.09-4.878-5.414-1.179-2.358-1.769-5.057-1.769-8.094zm23.373.108c0-1.823-.357-3.378-1.072-4.664-.715-1.323-1.68-2.323-2.895-3.002-1.215-.715-2.52-1.072-3.913-1.072-1.394 0-2.681.34-3.86 1.018-1.179.68-2.144 1.68-2.895 3.002-.715 1.287-1.072 2.824-1.072 4.61 0 1.787.357 3.36 1.072 4.718.751 1.322 1.716 2.34 2.895 3.056 1.215.714 2.502 1.072 3.86 1.072 1.393 0 2.698-.34 3.913-1.019 1.215-.715 2.18-1.715 2.895-3.002.715-1.322 1.072-2.895 1.072-4.717zm28.505-8.685h-5.2V59h-7.612V35.466h-3.378v-6.165h3.378v-1.5c0-3.646 1.036-6.326 3.109-8.042 2.073-1.715 5.2-2.52 9.381-2.412v6.326c-1.822-.036-3.091.268-3.806.91-.715.644-1.072 1.806-1.072 3.485v1.233h5.2v6.165zm32.472 8.041c0 1.073-.072 2.038-.215 2.895h-21.711c.179 2.145.929 3.824 2.252 5.04 1.322 1.214 2.948 1.822 4.878 1.822 2.787 0 4.771-1.197 5.95-3.592h8.095c-.858 2.86-2.502 5.218-4.932 7.077-2.43 1.822-5.414 2.733-8.952 2.733-2.859 0-5.433-.625-7.72-1.876-2.251-1.286-4.02-3.091-5.307-5.414-1.251-2.323-1.876-5.004-1.876-8.041 0-3.074.625-5.772 1.876-8.095 1.251-2.323 3.002-4.11 5.254-5.36 2.251-1.252 4.842-1.877 7.773-1.877 2.823 0 5.343.608 7.558 1.823 2.252 1.215 3.985 2.948 5.2 5.2 1.251 2.215 1.877 4.77 1.877 7.665zm-7.774-2.144c-.035-1.93-.732-3.466-2.09-4.61-1.358-1.18-3.02-1.77-4.986-1.77-1.858 0-3.431.573-4.717 1.716-1.251 1.108-2.019 2.663-2.305 4.664h14.098z"/>
    <path fill="#041555" d="M.665 16.707C-3.8 51.066 15.245 64.021 27.29 70.64V14.595C14.501 23.325 4.98 18.397.665 16.707z"/>
    <path fill="#11215F" fill-rule="evenodd" d="M48.734 30.433c0 .782.16 1.525.448 2.2-2.963.148-5.321 2.598-5.321 5.598 0 2.416 1.529 4.475 3.671 5.262-.772.96-1.234 2.181-1.234 3.51 0 1.799.847 3.4 2.164 4.425-5.784 10.002-14.538 15.567-21.17 19.211V14.595c11.909 8.13 20.986 4.415 25.662 2.501.346-.141.667-.273.964-.389.37 2.854.579 5.56.643 8.126-.074-.002-.148-.004-.222-.004-3.096 0-5.605 2.51-5.605 5.604z" clip-rule="evenodd"/>
</svg>
